# xmcd
#
# Track frame offsets: 
#        150
#        18115
#        36626
#        58710
#        80638
#        107038
#        129602
#        150218
#        172848
#
# Disc length: 2539 seconds
#
# Revision: 0
# Processed by: cddbd v1.5.2PL0 Copyright (c) Steve Scherf et al.
# Submitted via: ExactAudioCopy v0.99pb3
#
DISCID=6809e909
DTITLE=Grant Jones and the Pistol Grip Lassos - Far Away There's A Mount
DTITLE=ain
DYEAR=1900
DGENRE=Country
TTITLE0=The Beaten Path
TTITLE1=The Lucky One (Every Time I Stumble)
TTITLE2=Long Time Ago
TTITLE3=Ain't Got the Time
TTITLE4=Since I Lost You
TTITLE5=In Your Shoes
TTITLE6=Nowhere Station
TTITLE7=Ties That Bind
TTITLE8=Saving Grace
EXTD=
EXTT0=
EXTT1=
EXTT2=
EXTT3=
EXTT4=
EXTT5=
EXTT6=
EXTT7=
EXTT8=
PLAYORDER=
